<svg width="48" height="48" viewBox="0 0 48 48" fill="none" xmlns="http://www.w3.org/2000/svg">
<circle cx="24" cy="24" r="24" fill="#01287E"/>
<mask id="mask0" mask-type="alpha" maskUnits="userSpaceOnUse" x="0" y="0" width="48" height="48">
<circle cx="24" cy="24" r="24" fill="#14181D"/>
</mask>
<g mask="url(#mask0)">
<rect x="1" y="43" width="58.6899" height="5.65685" transform="rotate(-45 1 43)" fill="#F7F7F7"/>
<rect x="7" y="42" width="25.4558" height="1.41421" transform="rotate(-45 7 42)" fill="#D51031"/>
<rect x="23" y="22" width="25.4558" height="1.41421" transform="rotate(-45 23 22)" fill="#D51031"/>
<rect x="5" y="1" width="58.6899" height="5.65685" transform="rotate(45 5 1)" fill="#F7F7F7"/>
<rect x="7" y="8" width="24.0416" height="1.41419" transform="rotate(45 7 8)" fill="#D51031"/>
<rect x="25" y="22" width="25.4559" height="1.41419" transform="rotate(45 25 22)" fill="#D51031"/>
<rect y="19" width="48" height="10" fill="#F7F7F7"/>
<rect x="19" y="48" width="48" height="10" transform="rotate(-90 19 48)" fill="#F7F7F7"/>
<rect y="21" width="48" height="6" fill="#D51031"/>
<rect x="21" y="48" width="48" height="6" transform="rotate(-90 21 48)" fill="#D51031"/>
</g>
</svg>
