<svg width="71" height="66" viewBox="0 0 71 66" fill="none" xmlns="http://www.w3.org/2000/svg">
<rect y="6.31891" width="60.8032" height="49.1969" rx="4" fill="#273139"/>
<rect x="4.96072" y="22.6099" width="14.6561" height="9.02695" rx="2" fill="#1A2026"/>
<rect x="23.578" y="22.6099" width="14.6561" height="9.02695" rx="2" fill="#1A2026"/>
<rect x="42.1952" y="22.6099" width="14.6561" height="9.02695" rx="2" fill="#1A2026"/>
<rect x="42.1952" y="38.8584" width="14.6561" height="9.02695" rx="2" fill="#1A2026"/>
<rect x="23.578" y="38.8584" width="14.6561" height="9.02695" rx="2" fill="#1A2026"/>
<rect x="4.96072" y="38.8584" width="14.6561" height="9.02695" rx="2" fill="#1A2026"/>
<path d="M0 9.6525C0 7.44336 1.79086 5.6525 4 5.6525H56.7688C58.978 5.6525 60.7688 7.44336 60.7688 9.6525V16.9574H0V9.6525Z" fill="#1A2026"/>
<rect x="9.70473" width="4.15917" height="10.1553" rx="2.07959" fill="#273139"/>
<rect x="46.9393" width="4.15917" height="10.1553" rx="2.07959" fill="#273139"/>
<path d="M45.1172 24.9287C45.1172 23.8635 45.9807 23 47.0458 23H51.3854C52.4506 23 53.3141 23.8635 53.3141 24.9287V63.5026C53.3141 64.5677 52.4506 65.4312 51.3854 65.4312H47.0458C45.9807 65.4312 45.1172 64.5677 45.1172 63.5026V24.9287Z" fill="#447FD6"/>
<path d="M29.9287 48.3141C28.8635 48.3141 28 47.4506 28 46.3854L28 42.0458C28 40.9807 28.8635 40.1172 29.9287 40.1172L68.5026 40.1171C69.5677 40.1171 70.4312 40.9807 70.4312 42.0458V46.3854C70.4312 47.4506 69.5677 48.3141 68.5026 48.3141L29.9287 48.3141Z" fill="#447FD6"/>
<mask id="mask0" mask-type="alpha" maskUnits="userSpaceOnUse" x="28" y="23" width="43" height="43">
<path d="M45.1172 24.9287C45.1172 23.8635 45.9807 23 47.0458 23H51.3854C52.4506 23 53.3141 23.8635 53.3141 24.9287V63.5026C53.3141 64.5677 52.4506 65.4312 51.3854 65.4312H47.0458C45.9807 65.4312 45.1172 64.5677 45.1172 63.5026V24.9287Z" fill="#447FD6"/>
<path d="M29.9287 48.3141C28.8635 48.3141 28 47.4506 28 46.3854L28 42.0458C28 40.9807 28.8635 40.1172 29.9287 40.1172L68.5026 40.1171C69.5677 40.1171 70.4312 40.9807 70.4312 42.0458V46.3854C70.4312 47.4506 69.5677 48.3141 68.5026 48.3141L29.9287 48.3141Z" fill="#447FD6"/>
</mask>
<g mask="url(#mask0)">
<path d="M51.3854 65.4312H45.1172V64.708C50.4189 50.2133 52.4263 39.8942 53.073 23L53.3141 23V40.1171H68.5026C69.5677 40.1171 70.4312 40.9806 70.4312 42.0458V46.3854C70.4312 47.4506 69.5677 48.3141 68.5026 48.3141H53.3141V63.5025C53.3141 64.5677 52.4506 65.4312 51.3854 65.4312Z" fill="#2F63B1"/>
</g>
</svg>
