<svg width="72" height="67" viewBox="0 0 72 67" fill="none" xmlns="http://www.w3.org/2000/svg">
<rect y="6.31889" width="60.8032" height="49.1969" rx="4" fill="#273139"/>
<rect x="4.96072" y="22.6099" width="14.6561" height="9.02695" rx="2" fill="#1A2026"/>
<rect x="23.578" y="22.6099" width="14.6561" height="9.02695" rx="2" fill="#1A2026"/>
<rect x="42.1952" y="22.6099" width="14.6561" height="9.02695" rx="2" fill="#1A2026"/>
<rect x="42.1952" y="38.8584" width="14.6561" height="9.02695" rx="2" fill="#1A2026"/>
<rect x="23.578" y="38.8584" width="14.6561" height="9.02695" rx="2" fill="#1A2026"/>
<rect x="4.96072" y="38.8584" width="14.6561" height="9.02695" rx="2" fill="#1A2026"/>
<path d="M0 9.65248C0 7.44334 1.79086 5.65248 4 5.65248H56.7688C58.978 5.65248 60.7688 7.44334 60.7688 9.65248V16.9574H0V9.65248Z" fill="#1A2026"/>
<rect x="9.70474" width="4.15917" height="10.1553" rx="2.07959" fill="#273139"/>
<rect x="46.9393" width="4.15917" height="10.1553" rx="2.07959" fill="#273139"/>
<path d="M52.0681 52.073L56.7327 47.4083L69.3274 60.003C70.6155 61.2911 70.6155 63.3795 69.3274 64.6677V64.6677C68.0393 65.9558 65.9508 65.9558 64.6627 64.6677L52.0681 52.073Z" fill="#2F63B1"/>
<circle cx="43.4921" cy="39.4921" r="16.4921" stroke="#447FD6" stroke-width="6"/>
</svg>
