<svg width="71" height="64" viewBox="0 0 71 64" fill="none" xmlns="http://www.w3.org/2000/svg">
<circle opacity="0.3" cx="22" cy="38" r="22" fill="#447FD6"/>
<circle opacity="0.3" cx="46.1818" cy="24.3636" r="24.3636" fill="#447FD6"/>
<path d="M30.9091 2.90909C30.9091 1.30245 32.2115 0 33.8182 0H40.3636C41.9703 0 43.2727 1.30244 43.2727 2.90909V61.0909C43.2727 62.6976 41.9703 64 40.3636 64H33.8182C32.2115 64 30.9091 62.6976 30.9091 61.0909V2.90909Z" fill="#447FD6"/>
<path d="M7.99997 38.1818C6.39333 38.1818 5.09088 36.8794 5.09088 35.2727L5.09088 28.7273C5.09088 27.1206 6.39333 25.8182 7.99997 25.8182L66.1818 25.8182C67.7884 25.8182 69.0909 27.1206 69.0909 28.7273V35.2727C69.0909 36.8794 67.7884 38.1818 66.1818 38.1818L7.99997 38.1818Z" fill="#447FD6"/>
<mask id="mask0_8_16" style="mask-type:alpha" maskUnits="userSpaceOnUse" x="5" y="0" width="65" height="64">
<path d="M30.9091 2.90909C30.9091 1.30245 32.2115 0 33.8182 0H40.3636C41.9703 0 43.2727 1.30244 43.2727 2.90909V61.0909C43.2727 62.6976 41.9703 64 40.3636 64H33.8182C32.2115 64 30.9091 62.6976 30.9091 61.0909V2.90909Z" fill="#447FD6"/>
<path d="M7.99997 38.1818C6.39333 38.1818 5.09088 36.8794 5.09088 35.2727L5.09088 28.7273C5.09088 27.1206 6.39333 25.8182 7.99997 25.8182L66.1818 25.8182C67.7884 25.8182 69.0909 27.1206 69.0909 28.7273V35.2727C69.0909 36.8794 67.7884 38.1818 66.1818 38.1818L7.99997 38.1818Z" fill="#447FD6"/>
</mask>
<g mask="url(#mask0_8_16)">
<path d="M40.3637 64H30.9091V62.9091C38.9058 41.0464 41.9336 25.482 42.9091 -1.10973e-05L43.2728 0V25.8182H66.1818C67.7885 25.8182 69.0909 27.1206 69.0909 28.7273V35.2727C69.0909 36.8794 67.7885 38.1818 66.1818 38.1818H43.2728V61.0909C43.2728 62.6976 41.9703 64 40.3637 64Z" fill="#2F63B1"/>
</g>
</svg>
