<svg width="71" height="64" viewBox="0 0 71 64" fill="none" xmlns="http://www.w3.org/2000/svg">
<rect y="7.28461" width="70.0954" height="56.7154" rx="4" fill="#447FD6"/>
<rect x="5.71887" y="26.0652" width="16.896" height="10.4065" rx="2" fill="#2F63B1"/>
<rect x="27.1813" y="26.0652" width="16.896" height="10.4065" rx="2" fill="#2F63B1"/>
<rect x="48.6437" y="26.0652" width="16.896" height="10.4065" rx="2" fill="#2F63B1"/>
<rect x="48.6437" y="44.7969" width="16.896" height="10.4065" rx="2" fill="#2F63B1"/>
<rect x="27.1813" y="44.7969" width="16.896" height="10.4065" rx="2" fill="#2F63B1"/>
<rect x="5.71887" y="44.7969" width="16.896" height="10.4065" rx="2" fill="#2F63B1"/>
<path d="M0 10.5163C0 8.30719 1.79086 6.51633 4 6.51633H66.0558C68.265 6.51633 70.0558 8.30719 70.0558 10.5163V19.5489H0V10.5163Z" fill="#2F63B1"/>
<rect x="11.1879" width="4.7948" height="11.7073" rx="2.3974" fill="#447FD6"/>
<rect x="54.1128" width="4.7948" height="11.7073" rx="2.3974" fill="#447FD6"/>
</svg>
