<svg width="58" height="57" viewBox="0 0 58 57" fill="none" xmlns="http://www.w3.org/2000/svg">
<path d="M37.0615 1.84776C37.4842 0.82727 38.6541 0.342666 39.6746 0.765367L43.3701 2.2961C44.3906 2.7188 44.8752 3.88874 44.4525 4.90923L41.391 12.3003L34 9.2388L37.0615 1.84776Z" fill="#2F63B1"/>
<path d="M21.7856 55.1503C21.3641 56.1713 20.1951 56.6563 19.1746 56.2336L15.4791 54.7029C14.4586 54.2802 13.9731 53.1098 14.3946 52.0889L17.4475 44.6943L24.8385 47.7557L21.7856 55.1503Z" fill="#2F63B1"/>
<path d="M52.9159 13.7052C53.9359 13.2813 55.1054 13.7649 55.5281 14.7854L57.0589 18.4809C57.4816 19.5014 56.9974 20.6723 55.9774 21.0962L48.5899 24.1662L45.5284 16.7752L52.9159 13.7052Z" fill="#2F63B1"/>
<path d="M14.7643 4.91394C14.3422 3.8932 14.8271 2.72259 15.8473 2.2993L19.5419 0.766428C20.5622 0.343137 21.7315 0.82746 22.1536 1.84819L25.2108 9.241L17.8215 12.3067L14.7643 4.91394Z" fill="#2F63B1"/>
<path d="M44.2861 51.9153C44.7076 52.9363 44.222 54.1066 43.2016 54.5293L39.506 56.06C38.4856 56.4827 37.3166 55.9977 36.8951 54.9768L33.8421 47.5822L41.2332 44.5207L44.2861 51.9153Z" fill="#2F63B1"/>
<path d="M5.08412 42.7888C4.06412 43.2127 2.89458 42.729 2.47188 41.7085L0.941143 38.013C0.518443 36.9925 1.00265 35.8216 2.02265 35.3977L9.41014 32.3277L12.4716 39.7188L5.08412 42.7888Z" fill="#2F63B1"/>
<path d="M55.449 36.07C56.469 36.4939 56.9532 37.6648 56.5305 38.6853L54.9997 42.3808C54.577 43.4013 53.4075 43.8849 52.3875 43.4611L45 40.391L48.0615 33L55.449 36.07Z" fill="#2F63B1"/>
<path d="M1.84583 21.667C0.825835 21.2431 0.341629 20.0722 0.764329 19.0517L2.29506 15.3562C2.71776 14.3357 3.8873 13.8521 4.9073 14.276L12.2948 17.346L9.23333 24.737L1.84583 21.667Z" fill="#2F63B1"/>
<path d="M43.3949 28.1655C43.3949 36.0807 36.9914 42.4806 29.113 42.4806C21.2346 42.4806 14.8311 36.0807 14.8311 28.1655C14.8311 20.2503 21.2346 13.8504 29.113 13.8504C36.9914 13.8504 43.3949 20.2503 43.3949 28.1655Z" stroke="#447FD6" stroke-width="12"/>
<ellipse cx="29.113" cy="28.1655" rx="10.1409" ry="10.1575" stroke="#2F63B1" stroke-width="4"/>
</svg>
